<svg xmlns="http://www.w3.org/2000/svg" version="1.1" viewBox="271.81 158.16 318.2 423.31">
 <g fill="#010101">
  <path d="m559.52 322.47-14.559 7.3633c-38.109 19.293-101.89 51.594-134.32 63.273-4.7656 1.7148-16.258 4.7969-20.094-3.6523-3.5078-7.7188-0.40234-16.883 7.0703-20.855l2.875-1.5312c59.832-31.75 114-64.73 106.32-91.078l40.402-53.066 40.973 8.0273 1.8242-9.2969-36.398-7.1328 15.453-20.293c2.1094-2.7852 3.0117-6.2188 2.5352-9.6797-0.47656-3.457-2.2695-6.5195-5.0469-8.6328l-19.93-15.105c-5.7344-4.3477-13.953-3.2266-18.312 2.5195l-33.57 44.281h-45.824c-11.215 0-21.215 7.043-29.727 20.934-20.062 32.742-46.16 78.273-55.105 97.789-6.4883 14.168-3.9297 26.133 6.6719 31.211 3.0273 1.4492 5.8477 2.1797 8.5273 2.3398l-21.016 27.723c-1.2188 1.6094-2.0547 3.5039-2.4258 5.4727l-7.6016 40.645c-0.44922 2.3867 0.47656 4.7891 2.4102 6.2578 1.1367 0.86328 2.4844 1.3008 3.8516 1.3008 0.96094 0 1.9258-0.21875 2.832-0.66406l37.07-18.293c1.8086-0.89062 3.4102-2.2109 4.625-3.8164l11.754-15.5c1.0078-0.29297 2.0312-0.60547 3.0742-0.98437 6.4883-2.3398 14.113-5.4414 22.441-9.0508 2.5664 8.7578 10.668 14.984 19.977 14.984 0.59375 0 1.1836-0.023437 1.7852-0.074219 14.094-1.2031 24.793-12.98 24.953-26.844 2.7031 1.832 5.8359 2.8594 9.1133 2.8594 0.47266 0 0.94141-0.019532 1.4219-0.0625 5.5977-0.47656 10.676-3.1055 14.293-7.3984 2.9805-3.5391 4.5898-7.8711 4.8242-12.414 1.3672 0.51172 2.8242 0.78516 4.3125 0.78516 0.35547 0 0.71484-0.015625 1.0742-0.042969 4.0977-0.35156 7.8086-2.2734 10.457-5.418 2.6484-3.1406 3.9102-7.1211 3.5625-11.223l-0.09375-1.1133c6.043-3.0508 11.848-5.9844 17.273-8.7344l14.406-7.2891c10.664-4.9531 25.27-5.1797 25.414-5.1797l-0.097657-9.4727c-0.70312 0.007812-16.781 0.24219-29.465 6.1328zm-166.34 37.762c-1.8672 0.98828-3.4922 2.2383-4.9961 3.5938l124.7-164.46 3.5977 2.6914-118.92 155.85c-0.50391 0.26562-1.0234 0.54297-1.5 0.79688zm-25.684 30.879 14.895-19.641c-1.5977 3.2305-2.4766 6.7578-2.6172 10.383l-8.957 11.777zm92.91-69.801c-3.0117 2.0312-6.1016 4.043-9.2344 6.0352l83.918-111.35 3.5078 2.625zm-30.91 19.078c-4.0078 2.3008-7.9297 4.5039-11.68 6.5781l106.24-139.23 3.4531 2.582-98.02 130.07zm106.37-171.34c1.2031-1.5781 3.4648-1.8906 5.043-0.69141l19.922 15.105c0.76562 0.58203 1.2656 1.4258 1.3906 2.3789 0.13281 0.95312-0.11328 1.8984-0.69141 2.6562l-17.191 22.582-25.738-19.262zm-163.17 161.23c8.6758-18.941 35.082-64.988 54.566-96.789 6.6719-10.887 13.957-16.41 21.652-16.41h38.645l-22.105 29.16c-4.1719 0.0625-15.141 1.2773-22.027 11.836-7.3281 11.203-31.602 51.223-43.707 72.32-12.73 22.184-18.562 21.625-24.871 18.605-7.9375-3.8008-4.1484-14.359-2.1523-18.723zm78.652-67.027c1.4062-2.1602 3.0977-3.6758 4.8242-4.7773l-10.852 14.312c2.5078-4.0312 4.6016-7.3516 6.0273-9.5352zm-87.242 137.18 21 15.918-26.422 13.039zm29.055 10.137-14.801-11.219 3.9727-5.2266c3.0625 6.1016 8.4648 9.6172 15.469 10.324zm64.094-12.133c-5.8828 0.51172-11.098-3.6406-12.109-9.3711 8.7578-3.9219 18.094-8.2773 27.672-12.852l0.6875 3.2344c0.67578 9.6797-6.5547 18.16-16.25 18.988zm43.336-28.102c-1.9844 2.3555-4.7734 3.7969-7.8516 4.0586-1.8203 0.17188-3.6289-0.40625-5.0312-1.5977-0.91016-0.76172-1.4883-1.7656-1.8984-2.8477 5.8164-2.8281 11.637-5.6875 17.41-8.5547l0.042969 0.50781c0.26562 3.082-0.67969 6.0742-2.6719 8.4336zm20.672-17.082c-1.0195 1.2031-2.4453 1.9414-4.0195 2.0742-0.46484 0.058593-0.91406-0.058594-1.3398-0.23828 2.0273-1.0117 4.0156-2.0117 6.0078-3.0117-0.20312 0.39844-0.35547 0.82422-0.64844 1.1758z"/>
  <path d="m497.43 494.71-59.723 22.969-56.289-25.332-19.961-47.07-8.793 3.5195 16.434 37.902-23.012-10.254c0.95312-3.3281 1.4961-6.832 1.4961-10.465 0-20.891-16.996-37.887-37.887-37.887s-37.887 16.996-37.887 37.887 16.996 37.887 37.887 37.887c13.895 0 26.031-7.5391 32.625-18.719l27.434 12.348-48.395 30.797 5.0859 7.9922 52.445-34.566 55.02 24.648 22.961 55.102 8.7422-3.6484-21.805-52.336 57.023-21.93zm-187.73-0.3125c-15.672 0-28.414-12.742-28.414-28.414s12.742-28.414 28.414-28.414 28.414 12.742 28.414 28.414c0 15.668-12.742 28.414-28.414 28.414z"/>
 </g>
</svg>