<?xml version="1.0" encoding="utf-8"?>
<!-- Svg Vector Icons : http://www.onlinewebfonts.com/icon -->
<!DOCTYPE svg PUBLIC "-//W3C//DTD SVG 1.1//EN" "http://www.w3.org/Graphics/SVG/1.1/DTD/svg11.dtd">
<svg version="1.1" xmlns="http://www.w3.org/2000/svg" xmlns:xlink="http://www.w3.org/1999/xlink" x="0px" y="0px" viewBox="0 0 1000 1000" enable-background="new 0 0 1000 1000" xml:space="preserve">
<metadata> Svg Vector Icons : http://www.onlinewebfonts.com/icon </metadata>
<g><g transform="translate(0.000000,512.000000) scale(0.100000,-0.100000)"><path d="M5231.4,5014.9c-216.5-34.5-440.7-151.4-603.6-314.2c-212.7-212.7-312.3-452.2-312.3-756.9c1.9-295.1,105.4-546.1,314.2-755c206.9-207,465.6-312.3,764.6-312.3c471.4,0,871.9,300.8,1027.1,770.3c49.8,153.3,47.9,448.4-5.7,613.2c-61.3,185.9-132.2,302.8-272.1,440.7c-141.8,141.8-281.7,228-448.4,275.9C5582.1,5009.1,5333,5030.2,5231.4,5014.9z M5687.5,4558.8c130.3-67.1,254.9-193.5,320-327.7c40.2-80.5,47.9-122.6,47.9-277.9c0-157.1-7.7-197.4-51.7-291.3c-245.3-525-990.7-523.1-1239.8,3.8c-42.2,90.1-49.8,132.2-49.8,277.8c0,145.6,7.7,189.7,49.8,277.9c65.1,138,136.1,220.4,258.7,298.9c134.1,86.2,201.2,101.6,390.9,97.7C5551.4,4614.4,5593.6,4604.8,5687.5,4558.8z"/><path d="M4282.9,2824.7c-57.5-19.2-153.3-63.2-214.6-99.6c-93.9-57.5-1142-929.3-1398.8-1165c-157.1-143.7-170.5-191.6-350.7-1142C2228.8-57.2,2156-478.8,2156-522.9c0-201.2,113.1-387.1,291.3-475.2c141.8-70.9,348.7-70.9,490.5,0c111.1,55.6,203.1,155.2,237.6,256.8c11.5,36.4,92,385.1,178.2,774.1l155.2,709l143.7,111.1c78.6,61.3,147.5,111.1,153.3,111.1c5.7,0-34.5-222.3-90.1-492.5c-90.1-435-103.5-521.2-101.6-714.7v-220.4l-254.9-919.8l-254.8-921.7l-459.9-664.9c-538.4-778-609.3-889.1-651.5-1025.2c-42.2-128.4-32.6-346.8,19.2-452.2c46-95.8,168.6-212.7,279.8-270.2c270.2-139.9,538.4-46,827.8,287.4c207,237.6,1027.1,1345.2,1107.6,1494.6c59.4,111.1,130.3,285.5,341.1,841.2c13.4,30.7,21.1,26.8,59.4-38.3c116.9-191.6,1073.1-1661.3,1262.8-1943c241.5-356.4,415.8-544.2,574.9-624.7c95.8-49.8,126.5-55.6,279.8-53.7c136,0,191.6,9.6,268.3,44.1c147.5,67.1,249.1,160.9,314.2,293.2c51.7,99.6,59.4,138,59.4,264.4c0,157.1-34.5,300.8-105.4,442.6c-24.9,47.9-465.6,772.2-979.2,1609.6c-513.5,837.4-937,1540.6-942.7,1561.7c-7.7,44.1,149.5,774.1,166.7,774.1c5.8,0,38.3-40.2,69-88.1C5695.2-1.7,5888.7-109,6390.7-291c153.3-55.6,433-161,622.8-231.9c318.1-118.8,356.4-130.3,498.2-130.3c193.5-1.9,274,26.8,383.2,134.1C8098-314,8075.1,11.8,7843.2,234c-84.3,82.4-139.9,107.3-1011.7,467.5l-431.1,178.2l-298.9,659.2c-164.8,364.1-327.7,722.4-362.1,795.2c-80.5,170.5-283.6,381.3-450.3,461.8c-115,55.6-116.9,55.6-507.8,59.4C4443.9,2859.2,4373,2855.4,4282.9,2824.7z M5116.5,2441.5c105.4-47.9,247.2-210.8,295.1-339.2c72.8-189.7,61.3-258.7-210.8-1479.3c-139.9-618.9-251-1159.3-249.1-1199.5c1.9-63.2,155.2-323.8,967.7-1647.9c530.8-866.1,986.8-1619.2,1015.6-1674.7c126.5-251,70.9-423.5-153.3-471.4c-143.7-30.7-285.5,99.6-586.3,544.2c-400.5,594-2029.2,3129.1-2104,3276.7c-72.8,145.6-103.5,289.3-90.1,419.6c7.7,59.4,76.7,419.6,157.1,802.9c78.6,383.2,143.7,735.8,143.7,781.8c0,65.2-11.5,97.7-46,132.2c-53.7,53.7-126.5,76.7-187.8,59.4c-53.7-13.4-850.8-624.7-889.1-680.2c-15.3-21.1-105.4-387.1-199.3-810.5c-180.1-808.6-184-820.1-287.4-820.1c-88.1,0-134.1,49.8-134.1,147.5c0,86.2,272.1,1569.3,308.5,1686.2c15.3,47.9,164.8,185.9,655.3,603.6c350.7,297,672.6,565.3,718.6,595.9C4373,2458.7,4457.3,2476,4762,2476C4991.9,2476,5053.2,2470.2,5116.5,2441.5z M6128.2,588.5c23-23,287.4-141.8,588.3-266.3s609.3-251,684.1-281.7c178.2-74.7,239.5-134.1,231.9-224.2c-5.8-67.1-7.7-69-95.8-74.7c-67.1-3.8-138,13.4-297,72.8C7126.5-141.5,6864-45.7,6659,27.1c-205,74.7-450.3,172.5-546.1,218.4l-172.5,82.4L5789,554l-151.4,224.2l24.9,107.3c11.5,59.4,40.2,184,61.3,275.9l38.3,168.6l162.9-350.7C6013.2,785.9,6105.2,609.6,6128.2,588.5z M4106.6-1321.9l212.7-331.5L4131.5-2142c-103.5-268.3-212.7-536.5-241.4-594c-72.8-143.7-986.8-1360.5-1130.5-1506.1c-161-160.9-252.9-180.1-360.2-70.9c-69,67.1-67.1,147.6,3.8,279.8c32.6,59.4,281.7,431.1,555.7,829.7c406.2,586.3,505.9,743.5,534.6,839.3c19.2,65.2,111.1,400.5,205,745.4c95.8,346.8,178.2,628.5,184,628.5C3890.1-990.4,3989.7-1139.9,4106.6-1321.9z"/></g></g>
</svg>